0
SECTION
2
HEADER
9
$INSUNITS
70
4
9
$ACADVER
1
AC1014
9
$HANDSEED
5
FFFF
0
ENDSEC
0
SECTION
2
TABLES
0
TABLE
2
VPORT
5
8
100
AcDbSymbolTable
0
ENDTAB
0
TABLE
2
LTYPE
5
5
100
AcDbSymbolTable
0
LTYPE
5
14
100
AcDbSymbolTableRecord
100
AcDbLinetypeTableRecord
2
BYBLOCK
70
0
0
LTYPE
5
15
100
AcDbSymbolTableRecord
100
AcDbLinetypeTableRecord
2
BYLAYER
70
0
0
ENDTAB
0
TABLE
2
LAYER
5
2
100
AcDbSymbolTable
70
2
0
LAYER
5
50
100
AcDbSymbolTableRecord
100
AcDbLayerTableRecord
2
0
70
0
6
CONTINUOUS
0
ENDTAB
0
TABLE
2
STYLE
5
3
100
AcDbSymbolTable
70
1
0
STYLE
5
11
100
AcDbSymbolTableRecord
100
AcDbTextStyleTableRecord
2
STANDARD
70
0
0
ENDTAB
0
TABLE
2
VIEW
5
6
100
AcDbSymbolTable
70
0
0
ENDTAB
0
TABLE
2
UCS
5
7
100
AcDbSymbolTable
70
0
0
ENDTAB
0
TABLE
2
APPID
5
9
100
AcDbSymbolTable
70
2
0
APPID
5
12
100
AcDbSymbolTableRecord
100
AcDbRegAppTableRecord
2
ACAD
70
0
0
ENDTAB
0
TABLE
2
DIMSTYLE
5
A
100
AcDbSymbolTable
70
1
0
ENDTAB
0
TABLE
2
BLOCK_RECORD
5
1
100
AcDbSymbolTable
70
1
0
BLOCK_RECORD
5
1F
100
AcDbSymbolTableRecord
100
AcDbBlockTableRecord
2
*MODEL_SPACE
0
BLOCK_RECORD
5
1B
100
AcDbSymbolTableRecord
100
AcDbBlockTableRecord
2
*PAPER_SPACE
0
ENDTAB
0
ENDSEC
0
SECTION
2
BLOCKS
0
BLOCK
5
20
100
AcDbEntity
100
AcDbBlockBegin
2
*MODEL_SPACE
0
ENDBLK
5
21
100
AcDbEntity
100
AcDbBlockEnd
0
BLOCK
5
1C
100
AcDbEntity
100
AcDbBlockBegin
2
*PAPER_SPACE
0
ENDBLK
5
1D
100
AcDbEntity
100
AcDbBlockEnd
0
ENDSEC
0
SECTION
2
ENTITIES
0
LWPOLYLINE
5
100
100
AcDbEntity
8
0
100
AcDbPolyline
90
4
70
1
43
0.0
10
37.012007254282977
20
36.836437491794257
10
20.512006922076655
20
36.836437491794257
10
20.512006922076651
20
27.706437534870069
10
37.012007254282977
20
27.706437534870062
0
LWPOLYLINE
5
101
100
AcDbEntity
8
0
100
AcDbPolyline
90
4
70
1
43
0.0
10
-20.32099292882712
20
27.70643798704409
10
-20.32099292882712
20
36.836437491794278
10
-36.82099326103345
20
36.836437491794285
10
-36.82099326103345
20
27.706437987044097
0
LWPOLYLINE
5
102
100
AcDbEntity
8
0
100
AcDbPolyline
90
4
70
1
43
0.0
10
40.963351609258815
20
58.116986982571404
10
40.963351609258815
20
63.316986982571386
10
25.963351609258844
20
63.316986982571386
10
25.963351609258844
20
58.116986982571404
0
LWPOLYLINE
5
103
100
AcDbEntity
8
0
100
AcDbPolyline
90
4
70
1
43
0.0
10
-35.308736318800328
20
58.816990414965105
10
-35.308736318800328
20
65.016990240119483
10
-43.308736224329856
20
65.016990240119483
10
-43.308736224329856
20
58.816990414965105
0
LWPOLYLINE
5
104
100
AcDbEntity
8
0
100
AcDbPolyline
90
4
70
1
43
0.0
10
8.3100037752829934
20
27.706437987044072
10
8.3100037752829952
20
36.836437491794257
10
-8.1899965569233295
20
36.836437491794264
10
-8.1899965569233313
20
27.706437987044083
0
LWPOLYLINE
5
105
100
AcDbEntity
8
0
100
AcDbPolyline
90
4
70
1
43
0.0
10
-30.051902286205703
20
38.466094645834225
10
-30.051902286205703
20
44.146094681130919
10
-47.901900876130554
20
44.146094681130919
10
-47.901900876130554
20
38.466094645834225
0
CIRCLE
5
106
100
AcDbEntity
8
0
100
AcDbCircle
10
50.219999999999899
20
19.000000000705413
30
0
40
1.4999999999999947
210
0
220
0
230
1
0
CIRCLE
5
107
100
AcDbEntity
8
0
100
AcDbCircle
10
-50.220000000000049
20
19.000000000592578
30
0
40
1.5000000000000036
210
0
220
0
230
1
0
CIRCLE
5
108
100
AcDbEntity
8
0
100
AcDbCircle
10
50.219999999999906
20
76.999999998542819
30
0
40
1.4999999999999947
210
0
220
0
230
1
0
CIRCLE
5
109
100
AcDbEntity
8
0
100
AcDbCircle
10
-50.220000000000041
20
76.999999998601837
30
0
40
1.5000000000000036
210
0
220
0
230
1
0
LWPOLYLINE
5
110
100
AcDbEntity
8
0
100
AcDbPolyline
90
4
70
1
43
0.0
10
61.220000000000844
20
0
10
-61.220000000000859
20
0
10
-61.220000000000844
20
87.999999998787246
10
61.220000000000859
20
87.999999998787217
0
LWPOLYLINE
5
111
100
AcDbEntity
8
0
100
AcDbPolyline
90
4
70
1
43
0.0
10
20.512006922076651
20
36.836437491794257
10
37.012007254282977
20
36.836437491794257
10
37.012007254282977
20
27.706437534870059
10
20.512006922076655
20
27.706437534870062
0
LWPOLYLINE
5
112
100
AcDbEntity
8
0
100
AcDbPolyline
90
4
70
1
43
0.0
10
-20.32099292882712
20
36.836437491794278
10
-20.32099292882712
20
27.70643798704409
10
-36.820993261033443
20
27.706437987044094
10
-36.820993261033443
20
36.836437491794285
0
LWPOLYLINE
5
113
100
AcDbEntity
8
0
100
AcDbPolyline
90
4
70
1
43
0.0
10
40.963351609258815
20
63.316986982571386
10
40.963351609258815
20
58.116986982571419
10
25.963351609258844
20
58.116986982571404
10
25.963351609258851
20
63.316986982571386
0
LWPOLYLINE
5
114
100
AcDbEntity
8
0
100
AcDbPolyline
90
4
70
1
43
0.0
10
-35.308736318800335
20
65.016990240119483
10
-35.308736318800335
20
58.816990414965105
10
-43.308736224329856
20
58.816990414965105
10
-43.308736224329856
20
65.016990240119469
0
LWPOLYLINE
5
115
100
AcDbEntity
8
0
100
AcDbPolyline
90
4
70
1
43
0.0
10
8.3100037752829934
20
36.836437491794257
10
8.3100037752829916
20
27.706437987044072
10
-8.1899965569233295
20
27.706437987044083
10
-8.1899965569233295
20
36.836437491794264
0
LWPOLYLINE
5
116
100
AcDbEntity
8
0
100
AcDbPolyline
90
4
70
1
43
0.0
10
-30.051902286205703
20
44.146094681130919
10
-30.051902286205703
20
38.466094645834225
10
-47.901900876130554
20
38.466094645834225
10
-47.901900876130554
20
44.146094681130919
0
CIRCLE
5
117
100
AcDbEntity
8
0
100
AcDbCircle
10
-50.220000000000041
20
76.999999998601837
30
0
40
1.5000000000000036
210
0
220
0
230
1
0
CIRCLE
5
118
100
AcDbEntity
8
0
100
AcDbCircle
10
50.219999999999906
20
76.999999998542819
30
0
40
1.4999999999999947
210
0
220
0
230
1
0
CIRCLE
5
119
100
AcDbEntity
8
0
100
AcDbCircle
10
-50.220000000000049
20
19.000000000592578
30
0
40
1.5000000000000036
210
0
220
0
230
1
0
CIRCLE
5
120
100
AcDbEntity
8
0
100
AcDbCircle
10
50.219999999999899
20
19.000000000705413
30
0
40
1.4999999999999947
210
0
220
0
230
1
0
LWPOLYLINE
5
121
100
AcDbEntity
8
0
100
AcDbPolyline
90
4
70
1
43
0.0
10
61.220000000000844
20
0
10
61.220000000000866
20
87.999999998787217
10
-61.220000000000837
20
87.999999998787231
10
-61.220000000000859
20
0
0
ENDSEC
0
SECTION
2
OBJECTS
0
DICTIONARY
5
C
100
AcDbDictionary
3
ACAD_GROUP
350
D
3
ACAD_MLINESTYLE
350
17
0
DICTIONARY
5
D
100
AcDbDictionary
0
DICTIONARY
5
1A
330
C
100
AcDbDictionary
0
DICTIONARY
5
17
100
AcDbDictionary
0
ENDSEC
0
EOF
