0
SECTION
2
HEADER
9
$INSUNITS
70
4
9
$ACADVER
1
AC1014
9
$HANDSEED
5
FFFF
0
ENDSEC
0
SECTION
2
TABLES
0
TABLE
2
VPORT
5
8
100
AcDbSymbolTable
0
ENDTAB
0
TABLE
2
LTYPE
5
5
100
AcDbSymbolTable
0
LTYPE
5
14
100
AcDbSymbolTableRecord
100
AcDbLinetypeTableRecord
2
BYBLOCK
70
0
0
LTYPE
5
15
100
AcDbSymbolTableRecord
100
AcDbLinetypeTableRecord
2
BYLAYER
70
0
0
ENDTAB
0
TABLE
2
LAYER
5
2
100
AcDbSymbolTable
70
2
0
LAYER
5
50
100
AcDbSymbolTableRecord
100
AcDbLayerTableRecord
2
0
70
0
6
CONTINUOUS
0
ENDTAB
0
TABLE
2
STYLE
5
3
100
AcDbSymbolTable
70
1
0
STYLE
5
11
100
AcDbSymbolTableRecord
100
AcDbTextStyleTableRecord
2
STANDARD
70
0
0
ENDTAB
0
TABLE
2
VIEW
5
6
100
AcDbSymbolTable
70
0
0
ENDTAB
0
TABLE
2
UCS
5
7
100
AcDbSymbolTable
70
0
0
ENDTAB
0
TABLE
2
APPID
5
9
100
AcDbSymbolTable
70
2
0
APPID
5
12
100
AcDbSymbolTableRecord
100
AcDbRegAppTableRecord
2
ACAD
70
0
0
ENDTAB
0
TABLE
2
DIMSTYLE
5
A
100
AcDbSymbolTable
70
1
0
ENDTAB
0
TABLE
2
BLOCK_RECORD
5
1
100
AcDbSymbolTable
70
1
0
BLOCK_RECORD
5
1F
100
AcDbSymbolTableRecord
100
AcDbBlockTableRecord
2
*MODEL_SPACE
0
BLOCK_RECORD
5
1B
100
AcDbSymbolTableRecord
100
AcDbBlockTableRecord
2
*PAPER_SPACE
0
ENDTAB
0
ENDSEC
0
SECTION
2
BLOCKS
0
BLOCK
5
20
100
AcDbEntity
100
AcDbBlockBegin
2
*MODEL_SPACE
0
ENDBLK
5
21
100
AcDbEntity
100
AcDbBlockEnd
0
BLOCK
5
1C
100
AcDbEntity
100
AcDbBlockBegin
2
*PAPER_SPACE
0
ENDBLK
5
1D
100
AcDbEntity
100
AcDbBlockEnd
0
ENDSEC
0
SECTION
2
ENTITIES
0
LWPOLYLINE
5
100
100
AcDbEntity
8
0
100
AcDbPolyline
90
4
70
1
43
0.0
10
8.1900121912581074
20
27.706437987044062
10
8.1900121912581056
20
36.836437491794257
10
-8.3099881409482297
20
36.83643749179425
10
-8.3099881409482279
20
27.706437987044058
0
LWPOLYLINE
5
101
100
AcDbEntity
8
0
100
AcDbPolyline
90
4
70
1
43
0.0
10
36.89200804086822
20
27.706437987044062
10
36.89200804086822
20
36.83643749179425
10
20.392007708661875
20
36.83643749179425
10
20.392007708661879
20
27.706437987044058
0
LWPOLYLINE
5
102
100
AcDbEntity
8
0
100
AcDbPolyline
90
4
70
1
43
0.0
10
-20.511991287741868
20
27.706437987044055
10
-20.511991287741871
20
36.836437491794243
10
-37.011991619948212
20
36.836437491794236
10
-37.011991619948212
20
27.706437987044048
0
LWPOLYLINE
5
103
100
AcDbEntity
8
0
100
AcDbPolyline
90
4
70
1
43
0.0
10
48.219516200555823
20
58.611983607331339
10
48.219516200555823
20
68.331984079414539
10
31.119516051937129
20
68.331984079414525
10
31.119516051937136
20
58.611983607331332
0
CIRCLE
5
104
100
AcDbEntity
8
0
100
AcDbCircle
10
50.220005439519213
20
76.999999998542876
30
0
40
1.4999999999999947
210
1.4693679385278594e-39
220
3.9312125458533565e-55
230
1
0
CIRCLE
5
105
100
AcDbEntity
8
0
100
AcDbCircle
10
50.22000543951922
20
19.000000000705469
30
0
40
1.4999999999999947
210
1.4693679385278594e-39
220
3.9312125458533565e-55
230
1
0
CIRCLE
5
106
100
AcDbEntity
8
0
100
AcDbCircle
10
-50.219994560480728
20
76.999999998601851
30
0
40
1.5000000000000036
210
1.4693679385278594e-39
220
3.9312125458533572e-55
230
1
0
CIRCLE
5
107
100
AcDbEntity
8
0
100
AcDbCircle
10
-50.219994560480721
20
19.000000000592593
30
0
40
1.5000000000000036
210
1.4693679385278594e-39
220
3.9312125458533572e-55
230
1
0
LWPOLYLINE
5
108
100
AcDbEntity
8
0
100
AcDbPolyline
90
4
70
1
43
0.0
10
61.220005439520179
20
5.9403496517605132e-14
10
-61.219994560481524
20
0
10
-61.219994560481545
20
87.999999998787246
10
61.220005439520158
20
87.999999998787288
0
LWPOLYLINE
5
109
100
AcDbEntity
8
0
100
AcDbPolyline
90
4
70
1
43
0.0
10
8.1900121912581056
20
36.836437491794257
10
8.1900121912581074
20
27.706437987044069
10
-8.3099881409482279
20
27.706437987044058
10
-8.3099881409482297
20
36.83643749179425
0
LWPOLYLINE
5
110
100
AcDbEntity
8
0
100
AcDbPolyline
90
4
70
1
43
0.0
10
36.892008040868213
20
36.83643749179425
10
36.89200804086822
20
27.706437987044062
10
20.392007708661879
20
27.706437987044062
10
20.392007708661879
20
36.83643749179425
0
LWPOLYLINE
5
111
100
AcDbEntity
8
0
100
AcDbPolyline
90
4
70
1
43
0.0
10
-20.511991287741878
20
36.836437491794243
10
-20.511991287741871
20
27.706437987044055
10
-37.011991619948212
20
27.706437987044048
10
-37.011991619948212
20
36.836437491794236
0
LWPOLYLINE
5
112
100
AcDbEntity
8
0
100
AcDbPolyline
90
4
70
1
43
0.0
10
48.21951620055583
20
68.331984079414539
10
48.21951620055583
20
58.611983607331332
10
31.119516051937136
20
58.611983607331332
10
31.119516051937133
20
68.331984079414525
0
CIRCLE
5
113
100
AcDbEntity
8
0
100
AcDbCircle
10
-50.219994560480721
20
19.000000000592593
30
0
40
1.5000000000000036
210
0
220
0
230
1
0
CIRCLE
5
114
100
AcDbEntity
8
0
100
AcDbCircle
10
-50.219994560480728
20
76.999999998601851
30
0
40
1.5000000000000036
210
0
220
0
230
1
0
CIRCLE
5
115
100
AcDbEntity
8
0
100
AcDbCircle
10
50.22000543951922
20
19.000000000705469
30
0
40
1.4999999999999947
210
0
220
0
230
1
0
CIRCLE
5
116
100
AcDbEntity
8
0
100
AcDbCircle
10
50.220005439519213
20
76.999999998542876
30
0
40
1.4999999999999947
210
0
220
0
230
1
0
LWPOLYLINE
5
117
100
AcDbEntity
8
0
100
AcDbPolyline
90
4
70
1
43
0.0
10
61.220005439520179
20
5.3290705182007514e-14
10
61.220005439520165
20
87.999999998787274
10
-61.219994560481538
20
87.999999998787246
10
-61.219994560481524
20
0
0
LWPOLYLINE
5
118
100
AcDbEntity
8
0
100
AcDbPolyline
90
4
70
1
43
0.0
10
42.220005439519205
20
76.999999998542819
10
42.220005439519205
20
80.999999998542819
10
-42.219994560480714
20
80.999999998542791
10
-42.219994560480714
20
76.999999998542805
0
LWPOLYLINE
5
119
100
AcDbEntity
8
0
100
AcDbPolyline
90
4
70
1
43
0.0
10
42.220005439519205
20
80.999999998542819
10
42.220005439519213
20
76.999999998542819
10
-42.219994560480707
20
76.999999998542805
10
-42.219994560480714
20
80.999999998542819
0
ENDSEC
0
SECTION
2
OBJECTS
0
DICTIONARY
5
C
100
AcDbDictionary
3
ACAD_GROUP
350
D
3
ACAD_MLINESTYLE
350
17
0
DICTIONARY
5
D
100
AcDbDictionary
0
DICTIONARY
5
1A
330
C
100
AcDbDictionary
0
DICTIONARY
5
17
100
AcDbDictionary
0
ENDSEC
0
EOF
